# xmcd
#
# Track frame offsets: 
#        150
#        13432
#        23394
#        36097
#        48657
#        61402
#        74827
#        87558
#        100808
#        109238
#        116791
#        130143
#        139348
#        151886
#        164092
#        175477
#        186621
#        198726
#        211474
#        224026
#        237516
#
# Disc length: 3309 seconds
#
# Revision: 0
# Processed by: cddbd v1.5.2PL0 Copyright (c) Steve Scherf et al.
# Submitted via: ExactAudioCopyFreeDBPlugin 1.0
#
DISCID=590ceb15
DTITLE=Hank Williams - Big Box of Hank Williams [D2]
DYEAR=2012
DGENRE=Country
TTITLE0=Calling You
TTITLE1=Honky Tonk Blues II
TTITLE2=Rootie Tootie
TTITLE3=Fly Trouble Six More Miles
TTITLE4=Six More MIles
TTITLE5=You're Gonna Change (Or I'm Gonna Leave)
TTITLE6=I'm So Lonesome I Could Cry
TTITLE7=Wedding Bells
TTITLE8=Why Should I Cry
TTITLE9=Baby We're Really in Love [Live]
TTITLE10=Help Me Understand
TTITLE11=When God Dips His Love in My Heart
TTITLE12=They'll Never Take Her Love From Me
TTITLE13=Just Waitin'
TTITLE14=Heaven Holds All My Treasures
TTITLE15=I'll Never Get Outta This World Alive
TTITLE16=Lovesick Blues
TTITLE17=Nobody's Lonesome For Me
TTITLE18=I Won't Be Home No More
TTITLE19=Wedding Bells [Live]
TTITLE20=In My Dreams You Still Belong to Me
EXTD=
EXTT0=
EXTT1=
EXTT2=
EXTT3=
EXTT4=
EXTT5=
EXTT6=
EXTT7=
EXTT8=
EXTT9=
EXTT10=
EXTT11=
EXTT12=
EXTT13=
EXTT14=
EXTT15=
EXTT16=
EXTT17=
EXTT18=
EXTT19=
EXTT20=
PLAYORDER=
